<svg xmlns="http://www.w3.org/2000/svg" viewBox="0 0 512 512" role="img" aria-label="All For One">
	<defs>
		<linearGradient id="tile" x1="74" x2="438" y1="50" y2="462" gradientUnits="userSpaceOnUse">
			<stop stop-color="#10201b"/>
			<stop offset="0.48" stop-color="#07120f"/>
			<stop offset="1" stop-color="#03100d"/>
		</linearGradient>
		<radialGradient id="glow" cx="0" cy="0" r="1" gradientTransform="matrix(0 178 -178 0 256 256)" gradientUnits="userSpaceOnUse">
			<stop stop-color="#f4ffd6"/>
			<stop offset="0.18" stop-color="#7cff9e"/>
			<stop offset="0.62" stop-color="#13d86a" stop-opacity="0.54"/>
			<stop offset="1" stop-color="#13d86a" stop-opacity="0"/>
		</radialGradient>
		<linearGradient id="line" x1="106" x2="406" y1="112" y2="400" gradientUnits="userSpaceOnUse">
			<stop stop-color="#e8ff9c"/>
			<stop offset="0.46" stop-color="#40ff8d"/>
			<stop offset="1" stop-color="#00ad68"/>
		</linearGradient>
		<filter id="glowFilter" x="-45%" y="-45%" width="190%" height="190%">
			<feGaussianBlur in="SourceGraphic" stdDeviation="5" result="blur"/>
			<feMerge>
				<feMergeNode in="blur"/>
				<feMergeNode in="SourceGraphic"/>
			</feMerge>
		</filter>
	</defs>
	<rect width="512" height="512" fill="url(#tile)"/>
	<circle cx="256" cy="256" r="184" fill="none" stroke="#55ff92" stroke-opacity="0.1" stroke-width="28"/>
	<g filter="url(#glowFilter)">
		<circle cx="256" cy="256" r="142" fill="none" stroke="url(#line)" stroke-width="14" stroke-linecap="round" stroke-dasharray="86 20 22 18 134 28"/>
		<circle cx="256" cy="256" r="93" fill="none" stroke="#caff87" stroke-opacity="0.74" stroke-width="8" stroke-linecap="round" stroke-dasharray="60 18 30 14"/>
		<path d="M256 112v58M256 342v58M112 256h58M342 256h58" stroke="#e9ffd7" stroke-width="10" stroke-linecap="round" stroke-opacity="0.8"/>
		<path d="M164 177c50-39 132-45 187 4M158 333c58 41 147 39 207-8" fill="none" stroke="#30ff86" stroke-width="9" stroke-linecap="round" stroke-opacity="0.82"/>
		<path d="M200 256h112M256 200v112" stroke="#f1ffd0" stroke-width="7" stroke-linecap="round" stroke-opacity="0.86"/>
	</g>
	<circle cx="256" cy="256" r="92" fill="url(#glow)" opacity="0.76"/>
	<circle cx="256" cy="256" r="22" fill="#f0ffd0"/>
	<circle cx="256" cy="256" r="8" fill="#06120e"/>
</svg>
